<svg enable-background="new 0 0 255.1 63.3" viewBox="0 0 255.1 63.3" xmlns="http://www.w3.org/2000/svg"><path d="m37.7 12.1c4.8 7.9 7.7 17.7 7.7 26.2 0 12.5-7 25-22.7 25-15.7.1-22.7-12.5-22.7-24.9 0-8.5 2.9-18.3 7.7-26.2 4.6-7.7 10.2-12.2 15-12.2 4.7-.1 10.3 4.5 15 12.1zm107.4 6.5h15.9v41.4h17v-41.4h15.9v-15.3h-48.8zm85.1 0h24.9v-15.3h-24.9c-22.9 0-35.2 11.4-35.2 28.3s12.2 28.3 35.2 28.3h24.9v-15.2h-24.9c-10.6 0-17.6-3.8-17.6-13s7-13.1 17.6-13.1zm-119.7-15.3-9.1 33.8-9-33.8h-30v56.7h17v-46.1l12.4 46.1h19.5l12.4-46.1v46.1h17v-56.7z" fill="#636f7b"/></svg>