<svg enable-background="new 0 0 786.7 290" viewBox="0 0 786.7 290" xmlns="http://www.w3.org/2000/svg"><path d="m136.5 285h-118.4c-8.6 0-13.6-7.6-13.6-14.3 0-3.8 1.5-7.4 4.2-10.1l51.7-51.6z" fill="none" stroke="#636f7b" stroke-miterlimit="10" stroke-width="9"/><g fill="#636f7b"><path d="m20.1 290c-8.9 0-20.1-7.1-20.1-21.4v-159c0-21.5-1.1-36.6 14.3-52l57.6-57.6 102.2 102.3-163.4 163.3c-2.7 2.7-4.2 6.3-4.2 10.1 0 6.7 5 14.3 13.6 14.3"/><path d="m650.6 185.5h-17l-20.3 20.6v-20.6h-14.4v56.6h14.4v-23.4l20.6 23.4h17.3l-26.7-30.3z"/><path d="m194.9 162.3h-36.3v79.8h15.1v-27.8h21.2c18 0 29.9-9.2 29.9-26s-11.9-26-29.9-26m-.5 38.6h-20.8v-25.1h20.8c10.5 0 15.3 5 15.3 12.6s-4.8 12.5-15.3 12.5"/><path d="m258.8 183.9c-15.5 0-30.9 10-30.9 29.9s15.4 29.9 30.9 29.9 30.9-10 30.9-29.9-15.4-29.9-30.9-29.9m0 46.4c-8.4 0-16.3-6-16.3-16.4s7.9-16.4 16.3-16.4 16.3 6 16.3 16.4-7.9 16.4-16.3 16.4"/><path d="m326.4 230.3c-8.7 0-15.1-6.3-15.1-16.4s6.6-16.4 15.1-16.4c5.1 0 9.6 2.4 13.1 7.8l12.3-7.1c-4.1-8.8-13-14.1-25.3-14.1-16.1 0-29.8 11.9-29.8 29.9s13 29.9 29.8 29.9c12.1 0 20.2-5.5 25.9-15.2l-11.9-6.6c-3.4 4.7-7 8.1-14.1 8.2"/><path d="m479.4 217.6c-.7 8.7-2.4 10.6-5.4 10.6-1.5 0-3-.2-4.4-.6l.1 14.6c1.7.4 3.4.6 5.1.5 12.2 0 16.8-7.9 17.9-24.6l1.4-19.7h16.2v43.6h14.4v-56.5h-42.9z"/><path d="m438.7 183.9c-16.4 0-29.8 12-29.8 29.9s13.4 29.9 29.1 29.9c12.4 0 20.3-4.7 26-14.4l-11.4-5.7c-3.5 4.5-6.7 7.8-14.4 7.8-8.4 0-14.6-5.5-15.5-14.1h43.6v-5c0-16.6-11.4-28.3-27.6-28.4m-15.8 22.4c2-6.8 8.2-11.4 15.3-11.4 8 0 13.4 4.3 14.7 11.4z"/><path d="m562.5 183.9c-16.4 0-29.8 12-29.8 29.9s13.3 29.9 29.1 29.9c12.4 0 20.3-4.7 26-14.4l-11.4-5.7c-3.5 4.5-6.7 7.8-14.4 7.8-8.4 0-14.6-5.5-15.5-14.1h43.6v-5c0-16.6-11.4-28.3-27.6-28.4m-15.7 22.4c2-6.8 8.2-11.4 15.3-11.4 8 0 13.3 4.3 14.7 11.4z"/><path d="m356.9 198.1h16.8v44h14.4v-44h16.9v-12.6h-48.1z"/><path d="m679.8 183.9c-15.5 0-30.9 10-30.9 29.9s15.4 29.9 30.9 29.9 30.9-10 30.9-29.9-15.4-29.9-30.9-29.9m0 46.4c-8.4 0-16.3-6-16.3-16.4s7.9-16.4 16.3-16.4 16.3 6 16.3 16.4-7.9 16.4-16.3 16.4"/><path d="m767.9 185.5-15.6 39.6-15.6-39.6h-18.8v56.5h13.7v-35.7l15.1 35.7h11.2l15.1-35.7v35.7h13.7v-56.5z"/></g></svg>