<svg enable-background="new 0 0 512 512" viewBox="0 0 512 512" xmlns="http://www.w3.org/2000/svg"><path d="m472 288c13.3 0 24-10.7 24-24v-224c0-13.3-10.7-24-24-24h-432c-13.3 0-24 10.7-24 24v224c0 13.3 10.7 24 24 24h160v16h-8c-13.3 0-24 10.7-24 24v8h-128c-13.3 0-24 10.7-24 24v64c0 13.3 10.7 24 24 24h8v40c0 4.4 3.6 8 8 8h48c4.4 0 8-3.6 8-8v-40h288v40c0 4.4 3.6 8 8 8h48c4.4 0 8-3.6 8-8v-40h8c13.3 0 24-10.7 24-24v-64c0-13.3-10.7-24-24-24h-128v-8c0-13.3-10.7-24-24-24h-8v-16zm-440-24v-224c0-4.4 3.6-8 8-8h432c4.4 0 8 3.6 8 8v224c0 4.4-3.6 8-8 8h-432c-4.4 0-8-3.6-8-8zm0 160v-64c0-4.4 3.6-8 8-8h184v80h-184c-4.4 0-8-3.6-8-8zm240-72v80h-32v-80zm-176 128h-32v-32h32zm352 0h-32v-32h32zm32-120v64c0 4.4-3.6 8-8 8h-184v-80h184c4.4 0 8 3.6 8 8zm-152-32v8h-144v-8c0-4.4 3.6-8 8-8h128c4.4 0 8 3.6 8 8zm-32-24h-80v-16h80z"/><path d="m200 416c4.4 0 8-3.6 8-8v-32c0-4.4-3.6-8-8-8h-144c-4.4 0-8 3.6-8 8v32c0 4.4 3.6 8 8 8zm-136-32h128v16h-128z"/><path d="m304 376v32c0 4.4 3.6 8 8 8h144c4.4 0 8-3.6 8-8v-32c0-4.4-3.6-8-8-8h-144c-4.4 0-8 3.6-8 8zm16 8h128v16h-128z"/><path d="m448 192h16v16h-16z"/><path d="m432 216h32v16h-32z"/><path d="m416 240h48v16h-48z"/><path d="m71 100.3 29.3-29.3 11.3 11.3-29.2 29.2z"/><path d="m47 76.3 29.3-29.3 11.3 11.3-29.3 29.3z"/><path d="m195.8 102h-41v-14.8h99.8v14.8h-41.2v120h-17.6z"/><path d="m307.2 222-44-134.8h18.8l21 66.4c5.8 18.2 10.8 34.6 14.4 50.4h.4c3.8-15.6 9.4-32.6 15.4-50.2l22.8-66.6h18.6l-48.2 134.8z"/></svg>