<svg enable-background="new 0 0 602 512" viewBox="0 0 602 512" xmlns="http://www.w3.org/2000/svg"><path d="m597.5 456.1c0-.1 0-.1 0-.2 0-.3-.1-.6-.1-.9v-.1c-.1-.3-.1-.5-.2-.8 0-.1 0-.1-.1-.2-.1-.2-.2-.4-.3-.7v-.1l-40.1-79.1v-260.2c0-8-6.5-14.5-14.5-14.5h-401.2c-8 0-14.5 6.5-14.5 14.5v260.3l-40.1 79.1v.1c-.1.2-.2.4-.3.7 0 .1-.1.1-.1.2-.1.3-.2.5-.2.8v.1c-.1.3-.1.6-.1.9v.2.5 19c0 9.5 7.7 17.2 17.2 17.2h477.5c9.5 0 17.2-7.7 17.2-17.2v-19c-.1-.3-.1-.4-.1-.6zm-456-341.8h400.2v254.1h-400.2zm-2.9 269.1h405.9l33.3 65.7h-164.8l-8.3-30c-1.7-6.1-7.3-10.4-13.6-10.4h-99.2c-6.3 0-11.9 4.3-13.6 10.4l-8.3 30h-164.8zm258.9 65.7h-111.9l7-25.4h97.9zm185 26.5c0 1.2-1 2.2-2.2 2.2h-477.5c-1.2 0-2.2-1-2.2-2.2v-11.5h482v11.5z"/><path d="m518.1 253.8c-4.1 0-7.5 3.4-7.5 7.5v76.1h-338.1v-76.1c0-4.1-3.4-7.5-7.5-7.5s-7.5 3.4-7.5 7.5v79.3c0 6.5 5.3 11.8 11.8 11.8h344.6c6.5 0 11.8-5.3 11.8-11.8v-79.3c-.1-4.1-3.5-7.5-7.6-7.5z"/><path d="m513.8 130.3h-344.6c-6.5 0-11.8 5.3-11.8 11.8v79.3c0 4.1 3.4 7.5 7.5 7.5s7.5-3.4 7.5-7.5v-76.1h338.2v76.1c0 4.1 3.4 7.5 7.5 7.5s7.5-3.4 7.5-7.5v-79.4c0-6.5-5.3-11.7-11.8-11.7z"/><path d="m130 379.4c-.2-3.6-.1-7.2.2-10.7h-97.4c-7.4 0-13.4-6-13.4-13.4v-314c0-7.4 6-13.4 13.4-13.4h455.2c7.4 0 13.4 6 13.4 13.4v61.4c.6.1 1.2.2 1.8.3 4.4.7 8.8 1.6 13.2 2.4v-64.1c0-15.7-12.7-28.4-28.4-28.4h-455.2c-15.7 0-28.4 12.7-28.4 28.4v314c0 15.7 12.7 28.4 28.4 28.4h97.6c-.2-1.5-.3-2.9-.4-4.3z"/><path d="m130.8 321.6c-.2-4.2 1-8.4 3.2-12.2h-81.5v-91.2c0-4.1-3.4-7.5-7.5-7.5s-7.5 3.4-7.5 7.5v91.7c0 8 6.5 14.5 14.5 14.5h79c-.1-.9-.2-1.8-.2-2.8z"/><path d="m468.4 103c5-1.3 10-1.9 15-1.9v-40.7c0-8-6.5-14.5-14.5-14.5h-416.9c-8 0-14.5 6.5-14.5 14.5v117.8c0 4.1 3.4 7.5 7.5 7.5s7.5-3.4 7.5-7.5v-117.3h415.9z"/><path d="m257.9 240.8h67.9v16h-67.9z" transform="matrix(.7071 -.7071 .7071 .7071 -90.4642 279.257)"/><path d="m329.9 224.8h67.9v16h-67.9z" transform="matrix(.7071 -.7071 .7071 .7071 -58.0608 325.4855)"/><path d="m285.2 280.8h45.3v16h-45.3z" transform="matrix(.7071 -.7071 .7071 .7071 -114.0675 302.2885)"/><path d="m325.2 184.9h45.4v16h-45.4z" transform="matrix(.7071 -.7071 .7071 .7071 -34.5084 302.4664)"/><path d="m64.1 106h56.6v16h-56.6z" transform="matrix(.7071 -.7071 .7071 .7071 -53.594 98.6942)"/><path d="m64.4 153.7h56.6v16h-56.6z" transform="matrix(.7071 -.7071 .7071 .7071 -87.1729 112.9212)"/></svg>