<?xml version="1.0" encoding="UTF-8" standalone="no"?><!DOCTYPE svg PUBLIC "-//W3C//DTD SVG 1.1//EN" "http://www.w3.org/Graphics/SVG/1.1/DTD/svg11.dtd"><svg width="123px" height="50px" viewBox="0 0 185 49" version="1.1" xmlns="http://www.w3.org/2000/svg" xmlns:xlink="http://www.w3.org/1999/xlink" xml:space="preserve" xmlnsSerif="http://www.serif.com/" style="fill-rule:evenodd;clip-rule:evenodd;stroke-linejoin:round;stroke-miterlimit:1.41421;"><g><g><path d="M75.833,10.412l-4.056,0l0,9.74l-3.597,0l0,-9.74l-4.056,0l0,-2.942l11.709,0l0,2.942Z" style="fill:#202333;fill-rule:nonzero;"/><path d="M81.603,17.5c0.225,0.032 0.527,0.061 0.905,0.085c0.378,0.024 0.728,0.036 1.05,0.036c0.805,0 1.432,-0.101 1.883,-0.302c0.451,-0.2 0.676,-0.566 0.676,-1.097c0,-0.514 -0.205,-0.872 -0.616,-1.072c-0.41,-0.201 -1.009,-0.302 -1.798,-0.302l-2.1,0l0,2.652Zm2.027,-5.063c0.596,0 1.079,-0.076 1.449,-0.229c0.37,-0.153 0.555,-0.486 0.555,-1.001c0,-0.482 -0.209,-0.811 -0.627,-0.988c-0.419,-0.177 -0.966,-0.265 -1.642,-0.265c-0.225,0 -0.519,0.012 -0.881,0.036c-0.362,0.024 -0.656,0.052 -0.881,0.084l0,2.363l2.027,0Zm-0.12,7.957c-0.451,0 -0.934,-0.017 -1.449,-0.049c-0.515,-0.032 -1.022,-0.076 -1.521,-0.132c-0.499,-0.057 -0.969,-0.121 -1.412,-0.193c-0.442,-0.072 -0.817,-0.141 -1.122,-0.205l0,-12.152c0.305,-0.064 0.68,-0.124 1.122,-0.181c0.443,-0.056 0.913,-0.108 1.412,-0.156c0.499,-0.049 1.006,-0.085 1.521,-0.109c0.515,-0.024 0.998,-0.036 1.449,-0.036c1.046,0 1.927,0.105 2.643,0.313c0.716,0.209 1.296,0.483 1.738,0.82c0.443,0.338 0.761,0.715 0.954,1.133c0.193,0.418 0.29,0.836 0.29,1.254c0,0.563 -0.137,1.077 -0.411,1.543c-0.273,0.466 -0.619,0.804 -1.038,1.013c0.226,0.096 0.455,0.233 0.688,0.41c0.234,0.177 0.447,0.39 0.64,0.639c0.193,0.249 0.35,0.546 0.471,0.892c0.12,0.345 0.181,0.743 0.181,1.193c0,0.515 -0.101,1.013 -0.302,1.495c-0.201,0.482 -0.543,0.908 -1.026,1.278c-0.483,0.37 -1.119,0.667 -1.907,0.892c-0.789,0.225 -1.762,0.338 -2.921,0.338Z" style="fill:#202333;fill-rule:nonzero;"/><path d="M104.32,13.787c0,0.997 -0.145,1.909 -0.435,2.737c-0.29,0.828 -0.708,1.535 -1.255,2.122c-0.547,0.586 -1.203,1.04 -1.968,1.362c-0.764,0.321 -1.621,0.482 -2.571,0.482c-0.933,0 -1.782,-0.161 -2.547,-0.482c-0.764,-0.322 -1.42,-0.776 -1.967,-1.362c-0.547,-0.587 -0.974,-1.294 -1.28,-2.122c-0.306,-0.828 -0.458,-1.74 -0.458,-2.737c0,-0.996 0.156,-1.904 0.47,-2.724c0.314,-0.82 0.749,-1.519 1.304,-2.098c0.555,-0.578 1.215,-1.029 1.98,-1.35c0.764,-0.321 1.597,-0.482 2.498,-0.482c0.918,0 1.758,0.161 2.523,0.482c0.764,0.321 1.42,0.772 1.967,1.35c0.548,0.579 0.974,1.278 1.28,2.098c0.306,0.82 0.459,1.728 0.459,2.724Zm-3.67,0c0,-1.109 -0.221,-1.981 -0.664,-2.616c-0.442,-0.635 -1.074,-0.952 -1.895,-0.952c-0.821,0 -1.456,0.317 -1.907,0.952c-0.451,0.635 -0.676,1.507 -0.676,2.616c0,1.109 0.225,1.989 0.676,2.64c0.451,0.651 1.086,0.977 1.907,0.977c0.821,0 1.453,-0.326 1.895,-0.977c0.443,-0.651 0.664,-1.531 0.664,-2.64Z" style="fill:#202333;fill-rule:nonzero;"/><path d="M118.66,7.47l0,12.682l-3.622,0c0,-0.803 0.008,-1.603 0.025,-2.399c0.016,-0.795 0.032,-1.531 0.048,-2.206c0.016,-0.675 0.036,-1.265 0.06,-1.772c0.024,-0.506 0.036,-0.88 0.036,-1.121c-0.466,0.659 -0.933,1.326 -1.4,2.001c-0.467,0.675 -0.913,1.338 -1.34,1.989c-0.426,0.651 -0.829,1.274 -1.207,1.869c-0.378,0.595 -0.712,1.141 -1.002,1.639l-3.162,0l0,-12.682l3.597,0c0,0.804 -0.004,1.572 -0.012,2.303c-0.008,0.731 -0.02,1.394 -0.036,1.989c-0.016,0.595 -0.033,1.113 -0.049,1.555c-0.016,0.442 -0.024,0.784 -0.024,1.025c0.966,-1.415 1.855,-2.684 2.668,-3.81c0.813,-1.125 1.605,-2.145 2.378,-3.062l3.042,0Zm-5.746,-1.736c-0.515,0 -1.01,-0.076 -1.485,-0.229c-0.475,-0.152 -0.905,-0.377 -1.291,-0.675c-0.387,-0.297 -0.704,-0.659 -0.954,-1.085c-0.249,-0.426 -0.398,-0.912 -0.447,-1.458l2.487,-0.651c0.129,0.61 0.342,1.044 0.64,1.302c0.298,0.257 0.648,0.385 1.05,0.385c0.418,0 0.777,-0.116 1.074,-0.349c0.298,-0.233 0.511,-0.671 0.64,-1.314l2.462,0.651c-0.048,0.546 -0.197,1.032 -0.446,1.458c-0.25,0.426 -0.564,0.784 -0.942,1.073c-0.378,0.29 -0.808,0.511 -1.291,0.663c-0.483,0.153 -0.982,0.229 -1.497,0.229Z" style="fill:#202333;fill-rule:nonzero;"/><path d="M75.35,41.852l-1.569,0l0,-11.139l-6.494,0l0,11.139l-1.569,0l0,-12.465l9.632,0l0,12.465Z" style="fill:#202333;fill-rule:nonzero;"/><path d="M80.975,39.61c0.145,0.112 0.326,0.233 0.543,0.361c0.217,0.129 0.471,0.249 0.76,0.362c0.29,0.112 0.604,0.205 0.942,0.277c0.338,0.073 0.692,0.109 1.062,0.109c0.773,0 1.421,-0.133 1.944,-0.398c0.523,-0.265 0.945,-0.627 1.267,-1.085c0.322,-0.458 0.555,-0.997 0.7,-1.616c0.145,-0.618 0.217,-1.273 0.217,-1.965c0,-1.639 -0.41,-2.897 -1.231,-3.773c-0.821,-0.876 -1.907,-1.314 -3.259,-1.314c-0.772,0 -1.396,0.036 -1.871,0.109c-0.475,0.072 -0.833,0.148 -1.074,0.229l0,8.704Zm0,6.702l-1.569,0l0,-16.491c0.466,-0.161 1.062,-0.314 1.786,-0.458c0.724,-0.145 1.642,-0.217 2.752,-0.217c0.918,0 1.75,0.148 2.499,0.446c0.748,0.297 1.392,0.727 1.931,1.29c0.539,0.562 0.958,1.245 1.255,2.049c0.298,0.804 0.447,1.712 0.447,2.724c0,0.949 -0.125,1.821 -0.374,2.616c-0.25,0.796 -0.616,1.479 -1.099,2.05c-0.482,0.57 -1.074,1.017 -1.774,1.338c-0.7,0.321 -1.501,0.482 -2.402,0.482c-0.821,0 -1.533,-0.116 -2.136,-0.349c-0.604,-0.233 -1.043,-0.454 -1.316,-0.663l0,5.183Z" style="fill:#202333;fill-rule:nonzero;"/><path d="M104.126,35.631c0,0.981 -0.14,1.873 -0.422,2.677c-0.282,0.803 -0.676,1.486 -1.183,2.049c-0.507,0.563 -1.106,1.001 -1.799,1.314c-0.692,0.313 -1.456,0.47 -2.293,0.47c-0.837,0 -1.601,-0.157 -2.293,-0.47c-0.692,-0.313 -1.292,-0.751 -1.799,-1.314c-0.507,-0.563 -0.901,-1.246 -1.183,-2.049c-0.282,-0.804 -0.422,-1.696 -0.422,-2.677c0,-0.98 0.14,-1.872 0.422,-2.676c0.282,-0.804 0.676,-1.491 1.183,-2.061c0.507,-0.571 1.107,-1.013 1.799,-1.326c0.692,-0.314 1.456,-0.471 2.293,-0.471c0.837,0 1.601,0.157 2.293,0.471c0.693,0.313 1.292,0.755 1.799,1.326c0.507,0.57 0.901,1.257 1.183,2.061c0.282,0.804 0.422,1.696 0.422,2.676Zm-1.665,0c0,-1.559 -0.362,-2.8 -1.087,-3.725c-0.724,-0.924 -1.706,-1.386 -2.945,-1.386c-1.239,0 -2.221,0.462 -2.945,1.386c-0.724,0.925 -1.087,2.166 -1.087,3.725c0,1.56 0.363,2.797 1.087,3.713c0.724,0.917 1.706,1.375 2.945,1.375c1.239,0 2.221,-0.458 2.945,-1.375c0.725,-0.916 1.087,-2.153 1.087,-3.713Z" style="fill:#202333;fill-rule:nonzero;"/><path d="M111.465,29.122c0.483,0 1.026,0.028 1.63,0.084c0.603,0.056 1.171,0.192 1.702,0.409c0.531,0.216 0.977,0.553 1.34,1.01c0.362,0.458 0.543,1.079 0.543,1.865c0,0.61 -0.177,1.151 -0.531,1.624c-0.354,0.474 -0.837,0.823 -1.449,1.047c0.901,0.242 1.553,0.628 1.956,1.16c0.402,0.531 0.603,1.183 0.603,1.956c0,0.837 -0.169,1.509 -0.507,2.017c-0.338,0.507 -0.784,0.893 -1.34,1.159c-0.555,0.266 -1.183,0.439 -1.883,0.519c-0.7,0.081 -1.412,0.121 -2.136,0.121c-0.869,0 -1.63,-0.056 -2.282,-0.169c-0.651,-0.112 -1.211,-0.233 -1.677,-0.361l0,-11.911c0.402,-0.129 0.933,-0.249 1.593,-0.362c0.66,-0.112 1.473,-0.168 2.438,-0.168Zm-2.462,5.473l2.849,0c0.965,0 1.746,-0.16 2.341,-0.48c0.596,-0.319 0.893,-0.855 0.893,-1.606c0,-0.479 -0.104,-0.855 -0.313,-1.127c-0.21,-0.271 -0.483,-0.475 -0.821,-0.611c-0.338,-0.136 -0.724,-0.224 -1.159,-0.263c-0.435,-0.04 -0.869,-0.06 -1.304,-0.06c-0.531,0 -1.038,0.028 -1.521,0.084c-0.482,0.056 -0.804,0.109 -0.965,0.157l0,3.906Zm0,1.302l0,4.605c0.08,0.032 0.213,0.06 0.398,0.084c0.185,0.024 0.394,0.048 0.628,0.072c0.233,0.025 0.483,0.045 0.748,0.061c0.266,0.016 0.519,0.024 0.761,0.024c0.547,0 1.07,-0.033 1.569,-0.097c0.499,-0.065 0.933,-0.19 1.303,-0.376c0.371,-0.186 0.668,-0.436 0.894,-0.751c0.225,-0.315 0.338,-0.731 0.338,-1.248c0,-0.452 -0.093,-0.832 -0.278,-1.139c-0.185,-0.307 -0.443,-0.549 -0.772,-0.727c-0.33,-0.177 -0.717,-0.307 -1.159,-0.387c-0.443,-0.081 -0.922,-0.121 -1.437,-0.121l-2.993,0Z" style="fill:#202333;fill-rule:nonzero;"/><path d="M124.743,40.719c0.612,0 1.147,-0.02 1.606,-0.061c0.458,-0.04 0.849,-0.092 1.17,-0.156l0,-4.388c-0.177,-0.081 -0.458,-0.165 -0.844,-0.254c-0.387,-0.088 -0.918,-0.132 -1.594,-0.132c-0.386,0 -0.788,0.028 -1.207,0.084c-0.418,0.056 -0.805,0.177 -1.159,0.362c-0.354,0.185 -0.643,0.438 -0.869,0.759c-0.225,0.322 -0.338,0.748 -0.338,1.278c0,0.466 0.077,0.86 0.23,1.182c0.153,0.321 0.37,0.578 0.651,0.771c0.282,0.193 0.62,0.334 1.014,0.422c0.395,0.088 0.841,0.133 1.34,0.133Zm-0.145,-11.622c0.821,0 1.517,0.117 2.089,0.35c0.571,0.233 1.034,0.555 1.388,0.964c0.354,0.41 0.611,0.897 0.772,1.459c0.161,0.563 0.242,1.174 0.242,1.833l0,7.86c-0.161,0.048 -0.395,0.1 -0.7,0.156c-0.306,0.057 -0.66,0.117 -1.063,0.181c-0.402,0.064 -0.849,0.117 -1.34,0.157c-0.49,0.04 -0.993,0.06 -1.508,0.06c-0.66,0 -1.268,-0.072 -1.823,-0.217c-0.555,-0.145 -1.038,-0.374 -1.448,-0.687c-0.411,-0.313 -0.733,-0.715 -0.966,-1.206c-0.234,-0.49 -0.35,-1.089 -0.35,-1.796c0,-0.675 0.129,-1.254 0.386,-1.736c0.258,-0.482 0.62,-0.88 1.086,-1.193c0.467,-0.314 1.022,-0.543 1.666,-0.687c0.644,-0.145 1.344,-0.217 2.1,-0.217c0.226,0 0.463,0.012 0.713,0.036c0.249,0.024 0.491,0.056 0.724,0.096c0.233,0.04 0.434,0.081 0.603,0.121c0.169,0.04 0.286,0.076 0.35,0.108l0,-0.771c0,-0.434 -0.032,-0.856 -0.096,-1.266c-0.064,-0.41 -0.205,-0.78 -0.423,-1.109c-0.217,-0.33 -0.523,-0.595 -0.917,-0.796c-0.394,-0.201 -0.913,-0.301 -1.557,-0.301c-0.917,0 -1.601,0.064 -2.052,0.193c-0.451,0.128 -0.781,0.233 -0.99,0.313l-0.217,-1.374c0.273,-0.129 0.696,-0.249 1.267,-0.362c0.572,-0.112 1.26,-0.169 2.064,-0.169Z" style="fill:#202333;fill-rule:nonzero;"/><path d="M141.497,31.388c-0.486,0.577 -1.048,1.306 -1.688,2.187c-0.639,0.882 -1.283,1.814 -1.932,2.797c-0.648,0.982 -1.268,1.957 -1.861,2.924c-0.592,0.966 -1.107,1.818 -1.544,2.556l-1.473,0l0,-12.465l1.545,0l0,9.981c0.388,-0.69 0.867,-1.489 1.438,-2.398c0.571,-0.908 1.179,-1.824 1.823,-2.749c0.643,-0.924 1.291,-1.812 1.943,-2.664c0.651,-0.852 1.259,-1.576 1.822,-2.17l1.472,0l0,12.465l-1.545,0l0,-10.464Zm-3.476,-4.123c-0.901,0 -1.642,-0.249 -2.221,-0.747c-0.58,-0.499 -0.95,-1.206 -1.111,-2.122l1.28,-0.338c0.096,0.547 0.31,0.993 0.64,1.338c0.33,0.346 0.8,0.519 1.412,0.519c0.611,0 1.082,-0.173 1.412,-0.519c0.33,-0.345 0.543,-0.791 0.64,-1.338l1.279,0.338c-0.161,0.916 -0.531,1.623 -1.11,2.122c-0.58,0.498 -1.32,0.747 -2.221,0.747Z" style="fill:#202333;fill-rule:nonzero;"/><path d="M156.996,40.526l1.425,0l0,4.774l-1.521,0l0,-3.448l-9.705,0l0,3.448l-1.521,0l0,-4.774l1.279,0c0.531,-0.836 0.954,-1.64 1.268,-2.411c0.314,-0.772 0.555,-1.559 0.724,-2.363c0.169,-0.804 0.282,-1.652 0.338,-2.544c0.056,-0.892 0.085,-1.868 0.085,-2.929l0,-0.892l7.628,0l0,11.139Zm-6.156,-9.813c0,0.868 -0.028,1.72 -0.084,2.556c-0.057,0.835 -0.165,1.663 -0.326,2.483c-0.161,0.82 -0.387,1.627 -0.676,2.423c-0.29,0.796 -0.668,1.579 -1.135,2.351l6.808,0l0,-9.813l-4.587,0Z" style="fill:#202333;fill-rule:nonzero;"/><path d="M160.497,35.607c0,-1.093 0.157,-2.045 0.47,-2.857c0.314,-0.812 0.725,-1.491 1.232,-2.037c0.507,-0.547 1.086,-0.953 1.738,-1.218c0.652,-0.265 1.324,-0.398 2.016,-0.398c1.529,0 2.748,0.499 3.657,1.495c0.909,0.997 1.364,2.532 1.364,4.605c0,0.129 -0.004,0.258 -0.012,0.386c-0.008,0.129 -0.02,0.249 -0.036,0.362l-8.764,0c0.049,1.527 0.427,2.7 1.135,3.52c0.708,0.82 1.835,1.23 3.38,1.23c0.853,0 1.529,-0.081 2.028,-0.242c0.499,-0.16 0.861,-0.297 1.086,-0.409l0.29,1.35c-0.226,0.128 -0.648,0.281 -1.268,0.458c-0.619,0.177 -1.348,0.265 -2.184,0.265c-1.095,0 -2.028,-0.161 -2.801,-0.482c-0.772,-0.322 -1.408,-0.772 -1.907,-1.35c-0.499,-0.579 -0.861,-1.266 -1.086,-2.062c-0.226,-0.795 -0.338,-1.667 -0.338,-2.616Zm8.86,-0.988c-0.033,-1.302 -0.338,-2.315 -0.918,-3.038c-0.579,-0.724 -1.4,-1.085 -2.462,-1.085c-0.564,0 -1.066,0.112 -1.509,0.337c-0.443,0.225 -0.829,0.527 -1.159,0.905c-0.33,0.377 -0.587,0.815 -0.772,1.314c-0.185,0.498 -0.294,1.02 -0.326,1.567l7.146,0Z" style="fill:#202333;fill-rule:nonzero;"/><path d="M175.899,39.61c0.145,0.112 0.326,0.233 0.543,0.361c0.217,0.129 0.471,0.249 0.76,0.362c0.29,0.112 0.604,0.205 0.942,0.277c0.338,0.073 0.692,0.109 1.062,0.109c0.773,0 1.42,-0.133 1.943,-0.398c0.524,-0.265 0.946,-0.627 1.268,-1.085c0.322,-0.458 0.555,-0.997 0.7,-1.616c0.145,-0.618 0.217,-1.273 0.217,-1.965c0,-1.639 -0.41,-2.897 -1.231,-3.773c-0.821,-0.876 -1.907,-1.314 -3.259,-1.314c-0.773,0 -1.396,0.036 -1.871,0.109c-0.475,0.072 -0.833,0.148 -1.074,0.229l0,8.704Zm0,6.702l-1.569,0l0,-16.491c0.466,-0.161 1.062,-0.314 1.786,-0.458c0.724,-0.145 1.642,-0.217 2.752,-0.217c0.917,0 1.75,0.148 2.499,0.446c0.748,0.297 1.392,0.727 1.931,1.29c0.539,0.562 0.958,1.245 1.255,2.049c0.298,0.804 0.447,1.712 0.447,2.724c0,0.949 -0.125,1.821 -0.374,2.616c-0.25,0.796 -0.616,1.479 -1.099,2.05c-0.482,0.57 -1.074,1.017 -1.774,1.338c-0.7,0.321 -1.501,0.482 -2.402,0.482c-0.821,0 -1.533,-0.116 -2.137,-0.349c-0.603,-0.233 -1.042,-0.454 -1.315,-0.663l0,5.183Z" style="fill:#202333;fill-rule:nonzero;"/></g><path d="M37.779,48.5l-26.137,0c-6.055,0 -10.962,-4.901 -10.962,-10.947l0,-26.105c0,-6.046 4.907,-10.948 10.962,-10.948l37.1,0l0,37.053c0,6.046 -4.908,10.947 -10.963,10.947" style="fill:#e72b26;fill-rule:nonzero;"/><rect x="12.696" y="12.5" width="12.015" height="12" style="fill:#fff;fill-opacity:0.3;"/><rect x="24.71" y="12.5" width="12.016" height="12" style="fill:#fff;"/><rect x="24.71" y="24.499" width="12.016" height="12.001" style="fill:#fff;fill-opacity:0.3;"/></g></svg>