<svg enable-background="new 0 0 480 480" viewBox="0 0 480 480" xmlns="http://www.w3.org/2000/svg"><path d="m392 0h-304c-22.1 0-40 17.9-40 40v216c0 22.1 17.9 40 40 40h109.4l-11.4 40h-26v16h160v-16h-26l-11.4-40h109.4c22.1 0 40-17.9 40-40v-216c0-22.1-17.9-40-40-40zm-189.4 336 11.4-40h52l11.4 40zm213.4-80c0 13.3-10.7 24-24 24h-304c-13.3 0-24-10.7-24-24v-16h352zm0-32h-352v-184c0-13.3 10.7-24 24-24h304c13.3 0 24 10.7 24 24z"/><path d="m304 368h-224c-4.4 0-8 3.6-8 8v96c0 4.4 3.6 8 8 8h224c4.4 0 8-3.6 8-8v-96c0-4.4-3.6-8-8-8zm-8 96h-208v-80h208z"/><path d="m104 432h16v16h-16z"/><path d="m104 400h16v16h-16z"/><path d="m136 400h16v16h-16z"/><path d="m168 400h16v16h-16z"/><path d="m232 400h16v16h-16z"/><path d="m200 400h16v16h-16z"/><path d="m264 432h16v16h-16z"/><path d="m264 400h16v16h-16z"/><path d="m136 432h112v16h-112z"/><path d="m368 368c-22.1 0-40 17.9-40 40v32c0 22.1 17.9 40 40 40s40-17.9 40-40v-32c0-22.1-17.9-40-40-40zm24 72c0 13.3-10.7 24-24 24s-24-10.7-24-24v-32c0-13.3 10.7-24 24-24s24 10.7 24 24z"/><path d="m360 400h16v16h-16z"/><path d="m240 28c-50.7 0-92 41.3-92 92s41.3 92 92 92 92-41.3 92-92-41.3-92-92-92zm7.5 66.3c8.7-.4 16.9-1.4 24.4-2.7 1.2 6.5 2.1 13.5 2.4 21h-26.8zm0-15.1v-34.1c8 4.5 15.6 15.7 20.7 31.8-6.4 1.1-13.4 2-20.7 2.3zm-15-34.1v34.2c-7.2-.3-14.2-1.1-20.8-2.1 5.1-16.2 12.8-27.6 20.8-32.1zm0 49.2v18.2h-26.8c.3-7.3 1.1-14.2 2.3-20.7 7.7 1.3 16 2.2 24.5 2.5zm-41.8 18.2h-27.3c1-10.5 4.1-20.3 8.9-29.2 5.4 1.7 12.6 3.8 21 5.7-1.4 7.5-2.3 15.4-2.6 23.5zm0 15c.3 7.5 1.1 14.7 2.3 21.7-9 2.2-16.3 4.5-21.3 6.3-4.5-8.5-7.4-18-8.4-28zm15 0h26.8v16.3c-8.8.3-17.2 1.2-24.8 2.5-1-5.9-1.7-12.2-2-18.8zm26.8 31.3v36.1c-8.3-4.7-16.3-16.8-21.4-34 6.6-1.1 13.9-1.9 21.4-2.1zm15 36.1v-35.9c7.4.4 14.6 1.3 21.3 2.5-5.1 16.8-13.1 28.7-21.3 33.4zm0-51v-16.4h26.8c-.3 6.8-1 13.2-2.1 19.2-7.7-1.3-16-2.3-24.7-2.8zm41.8-16.4h27.3c-1 10.1-3.9 19.7-8.5 28.3-5-1.7-12.4-3.9-21.3-6 1.4-7.2 2.2-14.7 2.5-22.3zm0-15c-.3-8.3-1.3-16.4-2.7-24.1 8.8-2.2 15.8-4.6 20.4-6.3 5.2 9.1 8.6 19.4 9.6 30.4zm8.7-43.1c-3.9 1.3-9 2.9-15 4.4-1.8-6-4-11.7-6.6-16.9-1.2-2.3-2.4-4.5-3.6-6.6 9.6 4.6 18.2 11.1 25.2 19.1zm-90.8-19.1c-1.3 2.1-2.5 4.3-3.6 6.6-2.6 5.3-4.9 11.2-6.8 17.5-5.9-1.3-11.2-2.7-15.6-4 7.1-8.4 16-15.3 26-20.1zm-27 118.2c4.2-1.4 9.7-3.1 16.1-4.6 2 6.9 4.4 13.4 7.3 19.2 1.2 2.3 2.4 4.5 3.6 6.6-10.5-5-19.7-12.3-27-21.2zm92.6 21.2c1.3-2.1 2.5-4.3 3.6-6.6 2.8-5.7 5.2-12 7.1-18.7 6.3 1.5 11.7 3 16 4.4-7.2 8.8-16.3 15.9-26.7 20.9z"/></svg>