<svg enable-background="new 0 0 480 480" viewBox="0 0 480 480" xmlns="http://www.w3.org/2000/svg"><path d="m456 232v-176c0-22.056-17.944-40-40-40h-352c-22.056 0-40 17.944-40 40v120c-13.232 0-24 10.768-24 24v240c0 13.232 10.768 24 24 24h176c13.232 0 24-10.768 24-24h67.048c7.544 0 14.496-3.44 19.072-9.432s6.064-13.608 4.08-20.88l-15.728-57.688h45.528v88c0 13.232 10.768 24 24 24h88c13.232 0 24-10.768 24-24v-184c0-13.232-10.768-24-24-24zm-248 208c0 4.408-3.592 8-8 8h-176c-4.408 0-8-3.592-8-8v-16h192zm0-32h-192v-176h192zm0-192h-192v-16c0-4.408 3.592-8 8-8h176c4.408 0 8 3.592 8 8zm90.768 197.896c.664 2.424.168 4.96-1.36 6.96s-3.84 3.144-6.36 3.144h-67.048v-16h73.16zm-74.768-21.896v-40h57.888l10.912 40zm120-56h-120v-48h120zm0-80v16h-120v-72c0-13.232-10.768-24-24-24h-160v-120c0-13.232 10.768-24 24-24h352c13.232 0 24 10.768 24 24v176h-72c-13.232 0-24 10.768-24 24zm120 184c0 4.408-3.592 8-8 8h-88c-4.408 0-8-3.592-8-8v-16h104zm0-32h-104v-120h104zm0-136h-104v-16c0-4.408 3.592-8 8-8h88c4.408 0 8 3.592 8 8z"/><path d="m41.372 327.994h45.256v16h-45.256z" transform="matrix(.7071 -.7071 .7071 .7071 -218.8385 143.6649)"/><path d="m60.114 319.995h135.767v16h-135.767z" transform="matrix(.7071 -.7071 .7071 .7071 -194.4378 186.5751)"/><path d="m86.054 272.005h67.879v16h-67.879z" transform="matrix(.7071 -.7071 .7071 .7071 -162.8477 166.8601)"/><path d="m375.705 324.008h56.559v16h-56.559z" transform="matrix(.7071 -.7071 .7071 .7071 -116.4408 382.9028)"/><path d="m391.702 356.042h56.559v16h-56.559z" transform="matrix(.7071 -.7071 .7071 .7071 -134.4066 403.5971)"/><path d="m206.052 128.002h67.879v16h-67.879z" transform="matrix(.7071 -.7071 .7071 .7071 -25.876 209.5337)"/><path d="m278.057 112.001h67.879v16h-67.879z" transform="matrix(.7071 -.7071 .7071 .7071 6.5281 255.7627)"/><path d="m233.364 168.01h45.256v16h-45.256z" transform="matrix(.7071 -.7071 .7071 .7071 -49.4797 232.5655)"/><path d="m273.302 72.062h45.368v16h-45.368z" transform="matrix(.7071 -.7071 .7071 .7071 30.0796 232.7427)"/><path d="m56 48h16v16h-16z"/><path d="m88 48h16v16h-16z"/><path d="m120 48h16v16h-16z"/></svg>